<?xml version="1.0" encoding="utf-8"?>
<!-- Generator: Adobe Illustrator 21.0.0, SVG Export Plug-In . SVG Version: 6.00 Build 0)  -->
<svg version="1.1" id="Layer_1" xmlns="http://www.w3.org/2000/svg" xmlns:xlink="http://www.w3.org/1999/xlink" x="0px" y="0px"
	 viewBox="0 0 36 33" style="enable-background:new 0 0 36 33;" xml:space="preserve">
<style type="text/css">
	.st0{fill:#05668D;}
</style>
<g>
	<path class="st0" d="M18,21c5,0,9-4.7,9-10.5S23,0,18,0S9,4.7,9,10.5S13.1,21,18,21z M18,2.6c3.5,0,6.3,3.5,6.3,7.9
		s-2.8,7.9-6.3,7.9s-6.3-3.5-6.3-7.9S14.5,2.6,18,2.6z"/>
	<path class="st0" d="M26,20c-0.7-0.1-1.4,0.5-1.4,1.2c-0.1,0.7,0.5,1.4,1.2,1.4c4.1,0.5,7.2,3.8,7.5,7.8H2.7c0.3-4,3.5-7.3,7.5-7.8
		c0.7-0.1,1.3-0.7,1.2-1.4c-0.1-0.7-0.7-1.2-1.4-1.2C9.9,20,0,21.1,0,31.7C0,32.4,0.6,33,1.3,33h33.4c0.7,0,1.3-0.6,1.3-1.3
		C36,21.1,26.1,20,26,20z"/>
</g>
</svg>
